<mxfile host="app.diagrams.net" modified="2024-03-19T13:04:50.888Z" agent="Mozilla/5.0 (X11; Linux x86_64) AppleWebKit/537.36 (KHTML, like Gecko) Chrome/117.0.0.0 Safari/537.36" version="24.0.7" etag="0XcpREnU8w1KVguKp26T" type="github">
  <diagram name="Page-1" id="TgNjykx_HsIuZbRkZqyH">
    <mxGraphModel>
      <root>
        <mxCell id="0" />
        <mxCell id="1" parent="0" />
      </root>
    </mxGraphModel>
  </diagram>
</mxfile>
